<svg width="36" height="48" viewBox="0 0 36 48" fill="none" xmlns="http://www.w3.org/2000/svg">
<path fill-rule="evenodd" clip-rule="evenodd" d="M15.2971 14.6748C15.2971 13.4748 16.3037 12.502 17.5452 12.502C18.7868 12.502 19.7926 13.4748 19.7926 14.6748C19.7926 15.8748 18.7868 16.8477 17.5452 16.8477C16.3037 16.8477 15.2971 15.8748 15.2971 14.6748Z" fill="#0090FF"/>
<path fill-rule="evenodd" clip-rule="evenodd" d="M17.5452 47.6759C17.2644 47.6759 16.9843 47.5699 16.7693 47.3564C9.77423 40.4093 4.4885 32.2658 1.06044 23.1537C-0.901831 17.9381 -0.107323 12.1137 3.1839 7.57013C6.46438 3.04165 11.8332 0.337891 17.5452 0.337891C23.2572 0.337891 28.6268 3.04165 31.9072 7.57013C35.1992 12.1129 35.993 17.9381 34.0307 23.1537C31.4165 30.1015 27.6725 36.5535 22.904 42.3322C22.4448 42.8888 21.7656 43.2141 21.0428 43.2248C20.3235 43.2356 19.64 42.9318 19.1679 42.3916C16.9413 39.8476 15.1875 37.7148 14.2303 36.3866C13.7919 35.7791 13.8069 34.971 14.2669 34.3771L15.1409 33.2494L14.2798 32.1382C13.8105 31.5322 13.8105 30.6854 14.2798 30.0793L15.1416 28.9688L14.1258 27.6578C13.8986 27.3662 13.774 27.0008 13.7733 26.6304V24.7147C10.6826 23.2661 8.6559 20.1282 8.6559 16.6765C8.6559 14.2378 9.67751 11.8801 11.4578 10.2094C13.2639 8.51437 15.6245 7.66613 18.1105 7.82016C22.6096 8.09956 26.1823 11.6996 26.4216 16.1951C26.6158 19.8574 24.5919 23.188 21.3229 24.7133C21.3229 26.4635 21.3215 26.8661 21.3207 28.3233C21.3193 29.9782 21.3179 31.6332 21.3179 33.7179C21.3179 34.324 20.8257 34.8155 20.2182 34.8155C19.6106 34.8155 19.1185 34.324 19.1185 33.7172C19.1185 31.6325 19.1192 29.9775 19.1206 28.3219C19.122 26.667 19.1235 26.0659 19.1235 23.9811V23.2145L19.8449 22.9502C22.6218 21.9357 24.3813 19.2678 24.2251 16.3119C24.0481 12.9855 21.3021 10.218 17.9743 10.0117C16.1045 9.89562 14.3242 10.5347 12.9652 11.8099C11.6047 13.0858 10.856 14.8145 10.856 16.6772C10.856 19.4713 12.6213 21.9931 15.2498 22.9516L15.9727 23.216V26.4528L17.1254 27.9386C17.5946 28.5447 17.5946 29.3915 17.1254 29.9976L16.2628 31.108L17.1247 32.2199C17.5939 32.826 17.5946 33.6728 17.1247 34.2782L16.2435 35.4151C17.2013 36.7033 18.8104 38.6462 20.8243 40.9466C20.8844 41.0161 20.9575 41.0283 21.0105 41.029C21.0549 41.029 21.1395 41.0147 21.2061 40.9359C25.8198 35.3442 29.442 29.1021 31.9703 22.3814C33.6725 17.8579 32.9826 12.8021 30.1241 8.85753C27.2555 4.89789 22.553 2.53371 17.5445 2.53371C12.5367 2.53371 7.83345 4.89789 4.9642 8.85753C2.10641 12.8014 1.4165 17.8579 3.11871 22.3814C6.43572 31.1969 11.5502 39.076 18.3204 45.7996C18.7509 46.2266 18.7531 46.9222 18.3247 47.3521C18.1098 47.5685 17.8275 47.6759 17.5452 47.6759Z" fill="#0090FF"/>
</svg>
