<svg width="118" height="48" viewBox="0 0 118 48" fill="none" xmlns="http://www.w3.org/2000/svg">
<g clip-path="url(#clip0_283_655)">
<path fill-rule="evenodd" clip-rule="evenodd" d="M15.2971 14.6748C15.2971 13.4748 16.3037 12.502 17.5452 12.502C18.7868 12.502 19.7926 13.4748 19.7926 14.6748C19.7926 15.8748 18.7868 16.8477 17.5452 16.8477C16.3037 16.8477 15.2971 15.8748 15.2971 14.6748Z" fill="#0090FF"/>
<path fill-rule="evenodd" clip-rule="evenodd" d="M17.5452 47.6759C17.2644 47.6759 16.9843 47.5699 16.7693 47.3564C9.77423 40.4093 4.4885 32.2658 1.06044 23.1537C-0.901831 17.9381 -0.107323 12.1137 3.1839 7.57013C6.46438 3.04165 11.8332 0.337891 17.5452 0.337891C23.2572 0.337891 28.6268 3.04165 31.9072 7.57013C35.1992 12.1129 35.993 17.9381 34.0307 23.1537C31.4165 30.1015 27.6725 36.5535 22.904 42.3322C22.4448 42.8888 21.7656 43.2141 21.0428 43.2248C20.3235 43.2356 19.64 42.9318 19.1679 42.3916C16.9413 39.8476 15.1875 37.7148 14.2303 36.3866C13.7919 35.7791 13.8069 34.971 14.2669 34.3771L15.1409 33.2494L14.2798 32.1382C13.8105 31.5322 13.8105 30.6854 14.2798 30.0793L15.1416 28.9688L14.1258 27.6578C13.8986 27.3662 13.774 27.0008 13.7733 26.6304V24.7147C10.6826 23.2661 8.6559 20.1282 8.6559 16.6765C8.6559 14.2378 9.67751 11.8801 11.4578 10.2094C13.2639 8.51437 15.6245 7.66613 18.1105 7.82016C22.6096 8.09956 26.1823 11.6996 26.4216 16.1951C26.6158 19.8574 24.5919 23.188 21.3229 24.7133C21.3229 26.4635 21.3215 26.8661 21.3207 28.3233C21.3193 29.9782 21.3179 31.6332 21.3179 33.7179C21.3179 34.324 20.8257 34.8155 20.2182 34.8155C19.6106 34.8155 19.1185 34.324 19.1185 33.7172C19.1185 31.6325 19.1192 29.9775 19.1206 28.3219C19.122 26.667 19.1235 26.0659 19.1235 23.9811V23.2145L19.8449 22.9502C22.6218 21.9357 24.3813 19.2678 24.2251 16.3119C24.0481 12.9855 21.3021 10.218 17.9743 10.0117C16.1045 9.89562 14.3242 10.5347 12.9652 11.8099C11.6047 13.0858 10.856 14.8145 10.856 16.6772C10.856 19.4713 12.6213 21.9931 15.2498 22.9516L15.9727 23.216V26.4528L17.1254 27.9386C17.5946 28.5447 17.5946 29.3915 17.1254 29.9976L16.2628 31.108L17.1247 32.2199C17.5939 32.826 17.5946 33.6728 17.1247 34.2782L16.2435 35.4151C17.2013 36.7033 18.8104 38.6462 20.8243 40.9466C20.8844 41.0161 20.9575 41.0283 21.0105 41.029C21.0549 41.029 21.1395 41.0147 21.2061 40.9359C25.8198 35.3442 29.442 29.1021 31.9703 22.3814C33.6725 17.8579 32.9826 12.8021 30.1241 8.85753C27.2555 4.89789 22.553 2.53371 17.5445 2.53371C12.5367 2.53371 7.83345 4.89789 4.9642 8.85753C2.10641 12.8014 1.4165 17.8579 3.11871 22.3814C6.43572 31.1969 11.5502 39.076 18.3204 45.7996C18.7509 46.2266 18.7531 46.9222 18.3247 47.3521C18.1098 47.5685 17.8275 47.6759 17.5452 47.6759ZM50.8407 26.4778H53.8769C53.6842 27.8662 53.2006 28.9968 52.4233 29.8679C51.3487 31.0751 49.8807 31.6783 48.0202 31.6783C46.1976 31.6783 44.7297 31.108 43.6171 29.9682C42.3404 28.6572 41.7028 26.8654 41.7028 24.5958C41.7028 22.4702 42.2452 20.7601 43.3291 19.4677C44.5284 18.0313 46.1353 17.3127 48.1499 17.3127C49.7038 17.3127 50.9769 17.7289 51.9698 18.5621C52.9628 19.3953 53.5359 20.5301 53.6892 21.9673H50.6387C50.4954 21.2487 50.1995 20.6956 49.7539 20.3073C49.3083 19.9205 48.7395 19.7256 48.0489 19.7256C46.9456 19.7256 46.0966 20.1855 45.502 21.1047C44.936 21.9766 44.653 23.1257 44.653 24.5528C44.653 26.0086 44.9554 27.172 45.5593 28.0432C46.1253 28.8578 46.9262 29.2647 47.9622 29.2647C48.4042 29.2647 48.7968 29.188 49.1421 29.0354C50.0828 28.6228 50.6494 27.7702 50.8407 26.4778ZM55.4194 31.2614H58.3115V17.7289H55.4194V31.2614ZM55.3334 14.5975H58.3982V11.653H55.3334V14.5975ZM59.7229 19.9699V17.7289H61.8807V16.0489L63.9963 13.2334H64.7729V17.7297H67.2918V19.9706H64.788V27.0388C64.788 27.834 64.8453 28.3362 64.9599 28.5468C65.1519 28.9115 65.5552 29.0928 66.1692 29.0928C66.4859 29.0928 66.8598 29.0261 67.2918 28.8922V31.2621C66.7739 31.4627 66.0926 31.5637 65.2479 31.5637C64.8539 31.5637 64.4856 31.53 64.1403 31.4634C63.0463 31.2714 62.3708 30.7068 62.1114 29.7683C61.9681 29.2704 61.8958 28.4566 61.8958 27.3261V19.9699H59.7229ZM68.8572 36.2032V33.7316C69.5765 33.8569 70.0852 33.9185 70.3825 33.9185C70.6031 33.9185 70.7908 33.8899 70.9434 33.8326C71.3181 33.6893 71.6677 33.2243 71.9944 32.4391C72.2631 31.8266 72.43 31.333 72.498 30.9597L67.5906 17.7289H70.9291L74.11 27.627L77.1598 17.7289H80.3543L75.6926 30.9741C74.9532 33.071 74.3493 34.4172 73.8793 35.0111C73.1686 35.9109 72.1714 36.3608 70.8861 36.3608C70.3581 36.3608 69.6825 36.3085 68.8572 36.2032ZM81.3838 31.2614V11.6523H84.276V22.5991L89.1827 17.7289H92.8085L87.6288 22.7281L93.2978 31.2614H89.6434L85.4989 24.7685L84.276 25.9462V31.2614H81.3838Z" fill="#0090FF"/>
<path fill-rule="evenodd" clip-rule="evenodd" d="M101.901 23.2024C101.843 22.4265 101.671 21.7609 101.383 21.2057C100.807 20.1046 99.9591 19.5537 98.8357 19.5537C98.3557 19.5537 97.9194 19.6633 97.5268 19.8839C96.5482 20.4212 95.9579 21.5267 95.7573 23.2024H101.901ZM104.98 25.2277H95.7136C95.7329 26.0802 95.8619 26.7988 96.1019 27.3827C96.6678 28.7618 97.6852 29.4517 99.1531 29.4517C99.613 29.4517 100.04 29.38 100.433 29.2368C101.076 28.986 101.499 28.4795 101.699 27.7137H104.621C104.486 28.4215 104.227 29.0297 103.843 29.5377C102.779 30.9648 101.182 31.6783 99.0521 31.6783C97.0375 31.6783 95.4499 30.9934 94.2893 29.6236C93.1954 28.3312 92.6487 26.6698 92.6487 24.6388C92.6487 22.5705 93.2097 20.8418 94.3323 19.4526C95.4836 18.0263 96.9945 17.3127 98.8644 17.3127C99.7764 17.3127 100.62 17.4947 101.398 17.8586C102.981 18.6051 104.05 19.9985 104.606 22.0389C104.856 22.9867 104.98 24.0499 104.98 25.2277Z" fill="#0090FF"/>
<path fill-rule="evenodd" clip-rule="evenodd" d="M105.672 36.2032V33.7316C106.391 33.8569 106.9 33.9186 107.198 33.9186C107.418 33.9186 107.605 33.8899 107.758 33.8326C108.133 33.6893 108.482 33.2243 108.809 32.4391C109.078 31.8266 109.245 31.333 109.313 30.9597L104.405 17.7289H107.744L110.925 27.627L113.974 17.7289H117.17L112.507 30.9741C111.768 33.071 111.164 34.4172 110.694 35.0111C109.984 35.9109 108.986 36.3608 107.701 36.3608C107.173 36.3608 106.497 36.3085 105.672 36.2032Z" fill="#0090FF"/>
</g>
<defs>
<clipPath id="clip0_283_655">
<rect width="117.493" height="48" fill="white"/>
</clipPath>
</defs>
</svg>
